<?xml version="1.0"?>
<svg xmlns="http://www.w3.org/2000/svg" xmlns:xlink="http://www.w3.org/1999/xlink" xmlns:svgjs="http://svgjs.com/svgjs" version="1.1" width="80" height="80" x="0" y="0" viewBox="0 0 497.479 497.479" style="enable-background:new 0 0 512 512" xml:space="preserve" class=""><g><path xmlns="http://www.w3.org/2000/svg" d="m179.246 360.716c-13.058-48.734-63.067-77.617-111.813-64.555-78.373 21-91.981 126.853-22.018 167.248 69.802 40.299 154.945-23.895 133.831-102.693z" fill="#253038" data-original="#000000" style="" class=""/><path xmlns="http://www.w3.org/2000/svg" d="m485.265 338.698-156.597-271.235c-12.192-21.119-31.88-36.225-55.435-42.537-78.369-21.003-143.087 63.867-102.692 133.831l156.598 271.235c25.221 43.685 81 58.654 124.711 33.417 43.595-25.171 58.585-81.116 33.415-124.711z" fill="#253038" data-original="#000000" style="" class=""/><path xmlns="http://www.w3.org/2000/svg" d="m211.56 358.226 18.597-32.21-87.329-151.258c-7.004-12.131-11.699-24.97-14.235-38.007l-75.16 130.181c69.125-22.07 142.528 19.7 158.127 91.294z" fill="#253038" data-original="#000000" style="" class=""/></g></svg>
